<svg width="34" height="34" viewBox="0 0 34 34" fill="none" xmlns="http://www.w3.org/2000/svg">
<path d="M31.3438 2.21657H20.0016C19.7827 1.56851 19.3764 1.00725 18.8388 0.610235C18.3012 0.213216 17.6587 0 17 0C16.3413 0 15.6988 0.213216 15.1612 0.610235C14.6236 1.00725 14.2173 1.56851 13.9985 2.21657H2.65625C1.95202 2.21744 1.27688 2.50963 0.778911 3.02905C0.280946 3.54848 0.000826714 4.25272 0 4.9873V26.0448C0.000826714 26.7794 0.280946 27.4836 0.778911 28.003C1.27688 28.5224 1.95202 28.8146 2.65625 28.8155H13.8125V31.0321C13.5307 31.0321 13.2605 31.1488 13.0612 31.3567C12.8619 31.5645 12.75 31.8464 12.75 32.1404C12.75 32.4343 12.8619 32.7162 13.0612 32.924C13.2605 33.1319 13.5307 33.2487 13.8125 33.2487H20.1875C20.4693 33.2487 20.7395 33.1319 20.9388 32.924C21.1381 32.7162 21.25 32.4343 21.25 32.1404C21.25 31.8464 21.1381 31.5645 20.9388 31.3567C20.7395 31.1488 20.4693 31.0321 20.1875 31.0321V28.8155H31.3438C32.048 28.8146 32.7231 28.5224 33.2211 28.003C33.7191 27.4836 33.9992 26.7794 34 26.0448V4.98727C33.9992 4.2527 33.719 3.54846 33.2211 3.02904C32.7231 2.50962 32.048 2.21744 31.3438 2.21657ZM17 2.21657C17.2101 2.21657 17.4156 2.28158 17.5903 2.40336C17.765 2.52514 17.9012 2.69823 17.9816 2.90074C18.062 3.10325 18.0831 3.32609 18.0421 3.54108C18.0011 3.75607 17.8999 3.95355 17.7513 4.10854C17.6027 4.26354 17.4134 4.36909 17.2073 4.41186C17.0012 4.45462 16.7875 4.43267 16.5934 4.34879C16.3993 4.26491 16.2333 4.12285 16.1166 3.9406C15.9998 3.75834 15.9375 3.54406 15.9375 3.32486C15.9378 3.03103 16.0499 2.74933 16.2491 2.54156C16.4482 2.33378 16.7183 2.21691 17 2.21657ZM18.0625 31.0321H15.9375V28.8155H18.0625V31.0321ZM31.3438 26.5989H2.65625C2.5154 26.5988 2.38035 26.5403 2.28075 26.4365C2.18116 26.3326 2.12514 26.1917 2.125 26.0448V4.98727C2.12514 4.84035 2.18116 4.69948 2.28075 4.59559C2.38035 4.4917 2.5154 4.43327 2.65625 4.43313H13.9984C14.2173 5.08121 14.6235 5.64248 15.1612 6.03951C15.6988 6.43654 16.3413 6.64976 17 6.64976C17.6587 6.64976 18.3012 6.43654 18.8388 6.03951C19.3765 5.64248 19.7827 5.08121 20.0016 4.43313H31.3438C31.4846 4.43327 31.6196 4.4917 31.7192 4.59559C31.8188 4.69948 31.8749 4.84035 31.875 4.98727V22.1658H22.8438V20.4224C22.8455 19.9075 22.7088 19.4024 22.4493 18.9643C22.1898 18.5263 21.8178 18.1729 21.3755 17.9442L19.069 16.7412C18.9214 16.6643 18.7587 16.6243 18.5938 16.6243H15.4062C15.2413 16.6243 15.0786 16.6643 14.931 16.7412L12.6244 17.9442C12.1822 18.1729 11.8102 18.5263 11.5507 18.9643C11.2912 19.4024 11.1545 19.9075 11.1562 20.4224V22.1658H9.5625C9.28071 22.1658 9.01046 22.2825 8.8112 22.4904C8.61194 22.6982 8.5 22.9801 8.5 23.274C8.5 23.568 8.61194 23.8499 8.8112 24.0577C9.01046 24.2656 9.28071 24.3823 9.5625 24.3823H31.875V26.0448C31.8749 26.1917 31.8188 26.3326 31.7192 26.4365C31.6196 26.5403 31.4846 26.5988 31.3438 26.5989ZM20.7188 22.1658H13.2812V20.4224C13.2809 20.3195 13.3083 20.2185 13.3602 20.1309C13.4121 20.0434 13.4865 19.9727 13.5749 19.927L15.6568 18.8409H18.3432L20.4251 19.927C20.5136 19.9727 20.588 20.0434 20.6399 20.1309C20.6917 20.2185 20.7191 20.3195 20.7188 20.4224V22.1658Z" fill="#3CE0A0"/>
<path d="M20.7188 12.7452C20.7188 11.978 20.5006 11.2281 20.092 10.5902C19.6834 9.95226 19.1026 9.45508 18.4231 9.16149C17.7436 8.86789 16.9959 8.79107 16.2745 8.94075C15.5531 9.09042 14.8905 9.45986 14.3704 10.0024C13.8504 10.5448 13.4962 11.236 13.3527 11.9885C13.2092 12.7409 13.2829 13.5209 13.5643 14.2297C13.8458 14.9385 14.3224 15.5443 14.934 15.9705C15.5455 16.3968 16.2645 16.6243 17 16.6243C17.9859 16.6231 18.9311 16.214 19.6283 15.4868C20.3254 14.7596 20.7176 13.7737 20.7188 12.7452ZM17 14.4077C16.6848 14.4077 16.3767 14.3102 16.1146 14.1275C15.8525 13.9448 15.6482 13.6852 15.5276 13.3814C15.4069 13.0777 15.3754 12.7434 15.4369 12.4209C15.4984 12.0984 15.6502 11.8022 15.873 11.5697C16.0959 11.3372 16.3799 11.1789 16.6891 11.1147C16.9982 11.0506 17.3187 11.0835 17.6099 11.2093C17.9011 11.3352 18.15 11.5483 18.3252 11.8216C18.5003 12.095 18.5938 12.4164 18.5938 12.7452C18.5933 13.186 18.4252 13.6086 18.1264 13.9202C17.8277 14.2319 17.4225 14.4072 17 14.4077Z" fill="#3CE0A0"/>
<path d="M5.3125 24.3823C5.8993 24.3823 6.375 23.8861 6.375 23.274C6.375 22.662 5.8993 22.1658 5.3125 22.1658C4.7257 22.1658 4.25 22.662 4.25 23.274C4.25 23.8861 4.7257 24.3823 5.3125 24.3823Z" fill="#3CE0A0"/>
</svg>
