<svg width="20" height="20" viewBox="0 0 20 20" fill="none" xmlns="http://www.w3.org/2000/svg">
<path d="M19.586 2.85631L17.1334 0.407207C16.5905 -0.135736 15.704 -0.135736 15.1572 0.407207L2.05429 13.5238C1.64421 13.9339 1.33177 14.4378 1.14821 14.9885L1.1365 15.0237L0 20L4.9795 18.8633L5.01465 18.8516C5.56532 18.668 6.07303 18.3555 6.48311 17.9493L19.5899 4.83277C19.8516 4.56716 20 4.21952 20 3.84454C19.9961 3.47346 19.8516 3.12192 19.586 2.85631ZM2.07772 17.922L2.54247 15.8908L4.11248 17.4572L2.07772 17.922ZM5.54189 16.6759L3.32748 14.4612L14.1574 3.62189L16.3718 5.83663L5.54189 16.6759ZM17.4771 4.73121L15.2626 2.51648L16.1492 1.6298L18.3636 3.84454L17.4771 4.73121Z" fill="#3CE0A0"/>
</svg>
