<svg width="35" height="44" viewBox="0 0 35 44" fill="none" xmlns="http://www.w3.org/2000/svg">
<path d="M4.57898 4.5791H2C0.895431 4.5791 0 5.47453 0 6.5791V41.5181C0 42.6226 0.895428 43.5181 2 43.5181H28.4211C29.5256 43.5181 30.4211 42.6226 30.4211 41.5181V38.9389H28.2211V41.3181H2.2V6.7791H4.57898V4.5791Z" fill="#3CE0A0"/>
<path d="M20.458 7.30096H19.1214C18.5496 7.30096 18.0908 7.76642 18.0908 8.33162V9.82774C18.0908 9.84769 18.0775 9.86099 18.0575 9.86099H16.5614C15.9896 9.86099 15.5308 10.3264 15.5308 10.8916V12.2282C15.5308 12.8 15.9962 13.2588 16.5614 13.2588H18.0575C18.0775 13.2588 18.0908 13.2721 18.0908 13.2921V14.7882C18.0908 15.36 18.5562 15.8189 19.1214 15.8189H20.458C21.0232 15.8189 21.4886 15.3534 21.4886 14.7882V13.2921C21.4886 13.2721 21.5019 13.2588 21.5219 13.2588H23.018C23.5832 13.2588 24.0487 12.7934 24.0487 12.2282V10.8916C24.0487 10.3264 23.5832 9.86099 23.018 9.86099H21.5219C21.5019 9.86099 21.4886 9.84769 21.4886 9.82774V8.33162C21.4886 7.76642 21.0298 7.30096 20.458 7.30096ZM21.5219 10.8584H23.018C23.0379 10.8584 23.0512 10.8717 23.0512 10.8916V12.2282C23.0512 12.2481 23.0379 12.2614 23.018 12.2614H21.5219C20.9567 12.2614 20.4912 12.7269 20.4912 13.2921V14.7882C20.4912 14.8081 20.4779 14.8214 20.458 14.8214H19.1214C19.1015 14.8214 19.0882 14.8081 19.0882 14.7882V13.2921C19.0882 12.7202 18.6227 12.2614 18.0575 12.2614H16.5614C16.5415 12.2614 16.5282 12.2481 16.5282 12.2282V10.8916C16.5282 10.8717 16.5415 10.8584 16.5614 10.8584H18.0575C18.6294 10.8584 19.0882 10.3929 19.0882 9.82774V8.33162C19.0882 8.31168 19.1015 8.29838 19.1214 8.29838H20.458C20.4779 8.29838 20.4912 8.31168 20.4912 8.33162V9.82774C20.4912 10.3996 20.9567 10.8584 21.5219 10.8584Z" fill="#3CE0A0"/>
<path fill-rule="evenodd" clip-rule="evenodd" d="M6.77898 2.2V36.7389H32.8V2.2H6.77898ZM6.57898 0C5.47441 0 4.57898 0.895431 4.57898 2V36.9389C4.57898 38.0435 5.47441 38.9389 6.57898 38.9389H33C34.1046 38.9389 35 38.0435 35 36.9389V2C35 0.895431 34.1046 0 33 0H6.57898Z" fill="#3CE0A0"/>
<path fill-rule="evenodd" clip-rule="evenodd" d="M17.6908 8.33162C17.6908 7.54719 18.327 6.90096 19.1214 6.90096H20.458C21.2524 6.90096 21.8886 7.54719 21.8886 8.33162V9.46099H23.018C23.8041 9.46099 24.4487 10.1055 24.4487 10.8916V12.2282C24.4487 13.0143 23.8041 13.6588 23.018 13.6588H21.8886V14.7882C21.8886 15.5743 21.2441 16.2189 20.458 16.2189H19.1214C18.337 16.2189 17.6908 15.5826 17.6908 14.7882V13.6588H16.5614C15.777 13.6588 15.1308 13.0226 15.1308 12.2282V10.8916C15.1308 10.1072 15.767 9.46099 16.5614 9.46099H17.6908V8.33162ZM19.1214 7.70096C18.7722 7.70096 18.4908 7.98565 18.4908 8.33162V9.82774C18.4908 9.92861 18.4554 10.0438 18.3645 10.1347C18.2736 10.2256 18.1584 10.261 18.0575 10.261H16.5614C16.2122 10.261 15.9308 10.5457 15.9308 10.8916V12.2282C15.9308 12.5774 16.2155 12.8588 16.5614 12.8588H18.0575C18.1584 12.8588 18.2736 12.8942 18.3645 12.9851C18.4554 13.0761 18.4908 13.1912 18.4908 13.2921V14.7882C18.4908 15.1375 18.7755 15.4189 19.1214 15.4189H20.458C20.8023 15.4189 21.0886 15.1325 21.0886 14.7882V13.2921C21.0886 13.1912 21.124 13.0761 21.2149 12.9851C21.3059 12.8942 21.421 12.8588 21.5219 12.8588H23.018C23.3623 12.8588 23.6487 12.5725 23.6487 12.2282V10.8916C23.6487 10.5474 23.3623 10.261 23.018 10.261H21.5219C21.421 10.261 21.3059 10.2256 21.2149 10.1347C21.124 10.0438 21.0886 9.92861 21.0886 9.82774V8.33162C21.0886 7.98565 20.8072 7.70096 20.458 7.70096H19.1214ZM19.4882 8.69838V9.82774C19.4882 10.6122 18.852 11.2584 18.0575 11.2584H16.9282V11.8614H18.0575C18.842 11.8614 19.4882 12.4976 19.4882 13.2921V14.4214H20.0912V13.2921C20.0912 12.506 20.7358 11.8614 21.5219 11.8614H22.6512V11.2584H21.5219C20.7374 11.2584 20.0912 10.6222 20.0912 9.82774V8.69838H19.4882ZM18.8145 8.02468C18.9054 7.93375 19.0206 7.89838 19.1214 7.89838H20.458C20.5588 7.89838 20.674 7.93375 20.7649 8.02468C20.8559 8.11561 20.8912 8.23075 20.8912 8.33162V9.82774C20.8912 10.177 21.1759 10.4584 21.5219 10.4584H23.018C23.1189 10.4584 23.234 10.4938 23.3249 10.5847C23.4159 10.6756 23.4512 10.7908 23.4512 10.8916V12.2282C23.4512 12.3291 23.4159 12.4442 23.3249 12.5351C23.234 12.6261 23.1189 12.6614 23.018 12.6614H21.5219C21.1776 12.6614 20.8912 12.9478 20.8912 13.2921V14.7882C20.8912 14.8891 20.8559 15.0042 20.7649 15.0951C20.674 15.1861 20.5588 15.2214 20.458 15.2214H19.1214C19.0206 15.2214 18.9054 15.1861 18.8145 15.0951C18.7236 15.0042 18.6882 14.8891 18.6882 14.7882V13.2921C18.6882 12.9428 18.4035 12.6614 18.0575 12.6614H16.5614C16.4605 12.6614 16.3454 12.6261 16.2545 12.5351C16.1635 12.4442 16.1282 12.3291 16.1282 12.2282V10.8916C16.1282 10.7908 16.1635 10.6756 16.2545 10.5847C16.3454 10.4938 16.4605 10.4584 16.5614 10.4584H18.0575C18.4068 10.4584 18.6882 10.1737 18.6882 9.82774V8.33162C18.6882 8.23075 18.7236 8.11561 18.8145 8.02468Z" fill="#3CE0A0"/>
<path d="M21.2745 20.9051H10.3955C10.0363 20.9051 9.73853 20.6465 9.73853 20.3347C9.73853 20.023 10.0363 19.7644 10.3955 19.7644H21.2657C21.6249 19.7644 21.9227 20.023 21.9227 20.3347C21.9227 20.6465 21.6336 20.9051 21.2745 20.9051Z" fill="#3CE0A0"/>
<path fill-rule="evenodd" clip-rule="evenodd" d="M10.1946 20.2347C10.1491 20.2741 10.1385 20.3116 10.1385 20.3347C10.1385 20.3579 10.1491 20.3954 10.1946 20.4348C10.2403 20.4745 10.3111 20.5051 10.3955 20.5051H21.2745C21.3582 20.5051 21.4256 20.4749 21.4683 20.4372C21.5106 20.3997 21.5227 20.3621 21.5227 20.3347C21.5227 20.3116 21.5121 20.2741 21.4666 20.2347C21.4209 20.195 21.3501 20.1644 21.2657 20.1644H10.3955C10.3111 20.1644 10.2403 20.195 10.1946 20.2347ZM9.33853 20.3347C9.33853 19.7508 9.87039 19.3644 10.3955 19.3644H21.2657C21.7908 19.3644 22.3227 19.7508 22.3227 20.3347C22.3227 20.9122 21.8069 21.3051 21.2745 21.3051H10.3955C9.87039 21.3051 9.33853 20.9187 9.33853 20.3347Z" fill="#3CE0A0"/>
<path d="M29.2015 20.905H26.854C26.4948 20.905 26.197 20.6464 26.197 20.3346C26.197 20.0228 26.4948 19.7643 26.854 19.7643H29.2015C29.5606 19.7643 29.8584 20.0228 29.8584 20.3346C29.8584 20.6464 29.5693 20.905 29.2015 20.905Z" fill="#3CE0A0"/>
<path fill-rule="evenodd" clip-rule="evenodd" d="M26.6531 20.2346C26.6076 20.274 26.597 20.3115 26.597 20.3346C26.597 20.3578 26.6076 20.3952 26.6531 20.4347C26.6988 20.4743 26.7696 20.505 26.854 20.505H29.2015C29.2919 20.505 29.3615 20.4733 29.4043 20.4359C29.4466 20.3987 29.4584 20.3617 29.4584 20.3346C29.4584 20.3115 29.4478 20.274 29.4024 20.2346C29.3567 20.1949 29.2858 20.1643 29.2015 20.1643H26.854C26.7696 20.1643 26.6988 20.1949 26.6531 20.2346ZM25.797 20.3346C25.797 19.7507 26.3289 19.3643 26.854 19.3643H29.2015C29.7265 19.3643 30.2584 19.7507 30.2584 20.3346C30.2584 20.9153 29.739 21.305 29.2015 21.305H26.854C26.3289 21.305 25.797 20.9185 25.797 20.3346Z" fill="#3CE0A0"/>
<path d="M16.7637 24.2281H10.3957C10.0366 24.2281 9.73877 23.9695 9.73877 23.6577C9.73877 23.346 10.0366 23.0874 10.3957 23.0874H16.7637C17.1228 23.0874 17.4206 23.346 17.4206 23.6577C17.4206 23.9695 17.1228 24.2281 16.7637 24.2281Z" fill="#3CE0A0"/>
<path fill-rule="evenodd" clip-rule="evenodd" d="M10.1948 23.5577C10.1494 23.5971 10.1388 23.6346 10.1388 23.6577C10.1388 23.6809 10.1494 23.7184 10.1948 23.7578C10.2405 23.7975 10.3113 23.8281 10.3957 23.8281H16.7637C16.8481 23.8281 16.9189 23.7975 16.9646 23.7578C17.01 23.7184 17.0206 23.6809 17.0206 23.6577C17.0206 23.6346 17.01 23.5971 16.9646 23.5577C16.9189 23.518 16.8481 23.4874 16.7637 23.4874H10.3957C10.3113 23.4874 10.2405 23.518 10.1948 23.5577ZM9.33877 23.6577C9.33877 23.0738 9.87064 22.6874 10.3957 22.6874H16.7637C17.2888 22.6874 17.8206 23.0738 17.8206 23.6577C17.8206 24.2417 17.2888 24.6281 16.7637 24.6281H10.3957C9.87064 24.6281 9.33877 24.2417 9.33877 23.6577Z" fill="#3CE0A0"/>
<path d="M29.2017 24.2281H26.8542C26.4951 24.2281 26.1973 23.9695 26.1973 23.6577C26.1973 23.346 26.4951 23.0874 26.8542 23.0874H29.2017C29.5608 23.0874 29.8586 23.346 29.8586 23.6577C29.8586 23.9695 29.5696 24.2281 29.2017 24.2281Z" fill="#3CE0A0"/>
<path fill-rule="evenodd" clip-rule="evenodd" d="M26.6533 23.5577C26.6079 23.5971 26.5973 23.6346 26.5973 23.6577C26.5973 23.6809 26.6079 23.7184 26.6533 23.7578C26.699 23.7975 26.7698 23.8281 26.8542 23.8281H29.2017C29.2921 23.8281 29.3618 23.7964 29.4045 23.759C29.4469 23.7219 29.4586 23.6848 29.4586 23.6577C29.4586 23.6346 29.448 23.5971 29.4026 23.5577C29.3569 23.518 29.2861 23.4874 29.2017 23.4874H26.8542C26.7698 23.4874 26.699 23.518 26.6533 23.5577ZM25.7973 23.6577C25.7973 23.0738 26.3291 22.6874 26.8542 22.6874H29.2017C29.7268 22.6874 30.2586 23.0738 30.2586 23.6577C30.2586 24.2385 29.7392 24.6281 29.2017 24.6281H26.8542C26.3291 24.6281 25.7973 24.2417 25.7973 23.6577Z" fill="#3CE0A0"/>
<path d="M21.2747 27.5511H10.3957C10.0366 27.5511 9.73877 27.2926 9.73877 26.9808C9.73877 26.669 10.0366 26.4105 10.3957 26.4105H21.266C21.6251 26.4105 21.9229 26.669 21.9229 26.9808C21.9229 27.2926 21.6339 27.5511 21.2747 27.5511Z" fill="#3CE0A0"/>
<path fill-rule="evenodd" clip-rule="evenodd" d="M10.1948 26.8808C10.1494 26.9202 10.1388 26.9576 10.1388 26.9808C10.1388 27.004 10.1494 27.0414 10.1948 27.0808C10.2405 27.1205 10.3113 27.1511 10.3957 27.1511H21.2747C21.3585 27.1511 21.4258 27.121 21.4685 27.0833C21.5109 27.0458 21.5229 27.0081 21.5229 26.9808C21.5229 26.9576 21.5123 26.9202 21.4669 26.8808C21.4212 26.8411 21.3503 26.8105 21.266 26.8105H10.3957C10.3113 26.8105 10.2405 26.8411 10.1948 26.8808ZM9.33877 26.9808C9.33877 26.3969 9.87064 26.0105 10.3957 26.0105H21.266C21.791 26.0105 22.3229 26.3969 22.3229 26.9808C22.3229 27.5583 21.8072 27.9511 21.2747 27.9511H10.3957C9.87064 27.9511 9.33877 27.5647 9.33877 26.9808Z" fill="#3CE0A0"/>
<path d="M29.2017 27.5511H26.8542C26.4951 27.5511 26.1973 27.2926 26.1973 26.9808C26.1973 26.669 26.4951 26.4105 26.8542 26.4105H29.2017C29.5608 26.4105 29.8586 26.669 29.8586 26.9808C29.8586 27.2926 29.5696 27.5511 29.2017 27.5511Z" fill="#3CE0A0"/>
<path fill-rule="evenodd" clip-rule="evenodd" d="M26.6533 26.8808C26.6079 26.9202 26.5973 26.9576 26.5973 26.9808C26.5973 27.004 26.6079 27.0414 26.6533 27.0808C26.699 27.1205 26.7698 27.1511 26.8542 27.1511H29.2017C29.2921 27.1511 29.3618 27.1195 29.4045 27.082C29.4469 27.0449 29.4586 27.0078 29.4586 26.9808C29.4586 26.9576 29.448 26.9202 29.4026 26.8808C29.3569 26.8411 29.2861 26.8105 29.2017 26.8105H26.8542C26.7698 26.8105 26.699 26.8411 26.6533 26.8808ZM25.7973 26.9808C25.7973 26.3969 26.3291 26.0105 26.8542 26.0105H29.2017C29.7268 26.0105 30.2586 26.3969 30.2586 26.9808C30.2586 27.5615 29.7392 27.9511 29.2017 27.9511H26.8542C26.3291 27.9511 25.7973 27.5647 25.7973 26.9808Z" fill="#3CE0A0"/>
</svg>
