<svg width="10" height="18" viewBox="0 0 10 18" fill="none" xmlns="http://www.w3.org/2000/svg">
<path d="M8.1 9.9998C7.5 9.4998 6.8 9.0998 6 8.8998C6.2 8.3998 6.2 7.8998 5.9 7.3998L5.8 7.1998C5.6 6.8998 5.2 6.3998 5.1 6.0998C4.6 5.2998 3.7 4.7998 2.8 4.7998H2.7C1.2 4.7998 0 5.89981 0 7.29981V16.7998C0 17.1998 0.3 17.4998 0.8 17.4998C1.2 17.4998 1.6 17.1998 1.6 16.7998V13.4998L2.1 13.8998C2.8 14.4998 3.9 14.4998 4.6 13.8998C4.9 13.5998 5.1 13.1998 5.1 12.6998C5.1 12.2998 4.9 11.7998 4.6 11.4998L3.7 10.5998V8.5998C3.7 8.1998 3.4 7.8998 2.9 7.8998C2.4 7.8998 2.1 8.39981 2.1 8.79981V11.0998C2.1 11.2998 2.2 11.4998 2.3 11.5998L3.5 12.6998C3.5 12.6998 3.6 12.7998 3.6 12.8998C3.6 12.9998 3.6 12.9998 3.5 13.0998C3.4 13.1998 3.2 13.1998 3.1 13.0998L1.6 11.6998C1.6 11.6998 1.5 11.5998 1.5 11.4998V7.29981C1.5 6.69981 2 6.2998 2.6 6.2998H2.7C3.1 6.2998 3.5 6.4998 3.7 6.8998C3.9 7.0998 4.3 7.69981 4.5 7.9998L4.6 8.1998V8.29981C4.6 8.39981 4.5 8.3998 4.5 8.3998C4.1 8.5998 3.9 8.9998 3.9 9.4998C3.9 9.6998 4 9.89981 4.1 9.9998C4.3 10.1998 4.5 10.1998 4.7 10.1998C5.6 10.1998 6.4 10.4998 7.1 10.9998C7.7 11.5998 8.1 12.2998 8.1 13.0998C8.1 13.8998 7.8 14.6998 7.1 15.1998C6.5 15.7998 5.6 16.0998 4.7 15.9998C4.3 15.9998 3.9 16.2998 3.9 16.6998C3.9 16.8998 4 17.0998 4.1 17.1998C4.2 17.2998 4.4 17.3998 4.6 17.3998C4.7 17.3998 4.7 17.3998 4.8 17.3998C6 17.3998 7.2 16.9998 8 16.1998C8.9 15.3998 9.5 14.1998 9.5 12.9998C9.5 11.9998 9 10.7998 8.1 9.9998Z" fill="#3CE0A0"/>
<path d="M2.3998 4C3.5998 4 4.5998 3.1 4.5998 2C4.5998 0.9 3.5998 0 2.3998 0C1.1998 0 0.299805 0.9 0.299805 2C0.299805 3.1 1.1998 4 2.3998 4ZM1.7998 2C1.7998 1.7 2.0998 1.4 2.3998 1.4C2.6998 1.4 2.9998 1.7 2.9998 2C2.9998 2.3 2.7998 2.6 2.3998 2.6C1.9998 2.6 1.7998 2.3 1.7998 2Z" fill="#3CE0A0"/>
</svg>
