<svg width="34" height="33" viewBox="0 0 34 33" fill="none" xmlns="http://www.w3.org/2000/svg">
<path d="M1.38899 33C1.06048 33 0.736986 32.8744 0.491484 32.6364C0.114756 32.2712 -0.00300001 31.7142 0.193646 31.2278L3.12053 23.9876C1.1413 21.4147 0.0996094 18.3965 0.0996094 15.2109C0.0996094 11.1262 1.8305 7.29242 4.97356 4.41575C8.08477 1.56821 12.2137 0 16.5996 0C20.9855 0 25.1144 1.56821 28.2257 4.41575C31.3687 7.29242 33.0996 11.1262 33.0996 15.2109C33.0996 18.1402 32.1947 20.9845 30.4827 23.4361C30.075 24.0199 29.2715 24.1626 28.6877 23.755C28.104 23.3474 27.9613 22.5438 28.3689 21.96C29.7772 19.9434 30.5215 17.6096 30.5215 15.2109C30.5215 8.24517 24.2762 2.57812 16.5996 2.57812C8.92305 2.57812 2.67773 8.24517 2.67773 15.2109C2.67773 18.0329 3.68172 20.7023 5.58109 22.9307C5.89266 23.2962 5.97522 23.8047 5.79514 24.25L3.7735 29.2509L9.66097 26.6556C9.9873 26.5118 10.3587 26.5095 10.6868 26.6495C12.5443 27.4419 14.5336 27.8438 16.5996 27.8438C18.9774 27.8438 21.324 27.2903 23.3856 26.2432C24.0205 25.921 24.7963 26.1742 25.1187 26.8088C25.441 27.4436 25.1879 28.2195 24.5531 28.5419C22.1315 29.7718 19.3812 30.4219 16.5996 30.4219C14.3773 30.4219 12.2274 30.0228 10.201 29.2351L1.90868 32.8905C1.74149 32.9642 1.5645 33 1.38899 33Z" fill="#363636"/>
<path d="M17.5562 11.1876H16.4235C15.9389 11.1876 15.55 11.5821 15.55 12.0611V13.329C15.55 13.3459 15.5388 13.3572 15.5219 13.3572H14.2539C13.7693 13.3572 13.3805 13.7516 13.3805 14.2306V15.3633C13.3805 15.8479 13.7749 16.2368 14.2539 16.2368H15.5219C15.5388 16.2368 15.55 16.248 15.55 16.265V17.5329C15.55 18.0175 15.9445 18.4063 16.4235 18.4063H17.5562C18.0352 18.4063 18.4296 18.0119 18.4296 17.5329V16.265C18.4296 16.248 18.4409 16.2368 18.4578 16.2368H19.7258C20.2048 16.2368 20.5992 15.8423 20.5992 15.3633V14.2306C20.5992 13.7516 20.2048 13.3572 19.7258 13.3572H18.4578C18.4409 13.3572 18.4296 13.3459 18.4296 13.329V12.0611C18.4296 11.5821 18.0408 11.1876 17.5562 11.1876ZM18.4578 14.2025H19.7258C19.7427 14.2025 19.7539 14.2137 19.7539 14.2306V15.3633C19.7539 15.3802 19.7427 15.3915 19.7258 15.3915H18.4578C17.9788 15.3915 17.5844 15.786 17.5844 16.265V17.5329C17.5844 17.5498 17.5731 17.5611 17.5562 17.5611H16.4235C16.4066 17.5611 16.3953 17.5498 16.3953 17.5329V16.265C16.3953 15.7803 16.0009 15.3915 15.5219 15.3915H14.2539C14.237 15.3915 14.2258 15.3802 14.2258 15.3633V14.2306C14.2258 14.2137 14.237 14.2025 14.2539 14.2025H15.5219C16.0065 14.2025 16.3953 13.808 16.3953 13.329V12.0611C16.3953 12.0442 16.4066 12.0329 16.4235 12.0329H17.5562C17.5731 12.0329 17.5844 12.0442 17.5844 12.0611V13.329C17.5844 13.8136 17.9788 14.2025 18.4578 14.2025Z" fill="#3CE0A0"/>
<path fill-rule="evenodd" clip-rule="evenodd" d="M15.15 12.0611C15.15 11.3628 15.7163 10.7876 16.4235 10.7876H17.5562C18.2634 10.7876 18.8296 11.3628 18.8296 12.0611V12.9572H19.7258C20.4257 12.9572 20.9992 13.5307 20.9992 14.2306V15.3633C20.9992 16.0632 20.4257 16.6368 19.7258 16.6368H18.8296V17.5329C18.8296 18.2328 18.2561 18.8063 17.5562 18.8063H16.4235C15.7253 18.8063 15.15 18.2401 15.15 17.5329V16.6368H14.2539C13.5557 16.6368 12.9805 16.0705 12.9805 15.3633V14.2306C12.9805 13.5324 13.5467 12.9572 14.2539 12.9572H15.15V12.0611ZM16.7953 12.4329V13.329C16.7953 14.0272 16.2291 14.6025 15.5219 14.6025H14.6258V14.9915H15.5219C16.2201 14.9915 16.7953 15.5577 16.7953 16.265V17.1611H17.1844V16.265C17.1844 15.565 17.7579 14.9915 18.4578 14.9915H19.3539V14.6025H18.4578C17.7596 14.6025 17.1844 14.0362 17.1844 13.329V12.4329H16.7953Z" fill="#3CE0A0"/>
</svg>
