<svg width="34" height="39" viewBox="0 0 34 39" fill="none" xmlns="http://www.w3.org/2000/svg">
<path fill-rule="evenodd" clip-rule="evenodd" d="M2.2 2.2V36.0356H31.8V2.2H2.2ZM2 0C0.895431 0 0 0.895433 0 2V36.2356C0 37.3402 0.89543 38.2356 2 38.2356H32C33.1046 38.2356 34 37.3402 34 36.2356V2C34 0.895431 33.1046 0 32 0H2Z" fill="#3CE0A0"/>
<path d="M17.4746 14.5326H13.8861L15.1855 13.2337C15.3737 13.0441 15.4795 12.7869 15.4795 12.5188C15.4795 12.2507 15.3737 11.9935 15.1855 11.8039C14.9973 11.6143 14.742 11.5078 14.4758 11.5078C14.2096 11.5078 13.9543 11.6143 13.7661 11.8039L10.7674 14.8246C10.6737 14.9182 10.5993 15.0295 10.5486 15.1522C10.4978 15.2749 10.4717 15.4065 10.4717 15.5395C10.4717 15.6724 10.4978 15.804 10.5486 15.9267C10.5993 16.0494 10.6737 16.1607 10.7674 16.2543L13.7661 19.275C13.9543 19.4646 14.2096 19.5711 14.4758 19.5711C14.742 19.5711 14.9973 19.4646 15.1855 19.275C15.3737 19.0854 15.4795 18.8282 15.4795 18.5601C15.4795 18.292 15.3737 18.0348 15.1855 17.8452L13.8861 16.5463H17.4746C18.4631 16.5463 19.4294 16.8416 20.2513 17.3948C21.0732 17.948 21.7138 18.7342 22.0921 19.6542C22.4703 20.5741 22.5693 21.5863 22.3765 22.5629C22.1836 23.5395 21.7076 24.4365 21.0086 25.1406C20.3097 25.8447 19.4191 26.3242 18.4496 26.5184C17.4801 26.7127 16.4752 26.613 15.562 26.2319C14.6487 25.8509 13.8681 25.2056 13.3189 24.3777C12.7698 23.5498 12.4766 22.5764 12.4766 21.5807C12.4766 21.3137 12.3713 21.0576 12.1839 20.8688C11.9964 20.6799 11.7422 20.5739 11.4771 20.5739C11.212 20.5739 10.9577 20.6799 10.7702 20.8688C10.5828 21.0576 10.4775 21.3137 10.4775 21.5807C10.4775 22.9747 10.8878 24.3374 11.6567 25.4965C12.4256 26.6556 13.5183 27.5589 14.7969 28.0924C16.0755 28.6259 17.4823 28.7654 18.8396 28.4935C20.1969 28.2215 21.4437 27.5502 22.4223 26.5645C23.4008 25.5788 24.0672 24.323 24.3372 22.9558C24.6072 21.5886 24.4686 20.1714 23.9391 18.8835C23.4095 17.5956 22.5126 16.4949 21.362 15.7204C20.2113 14.9459 18.8585 14.5326 17.4746 14.5326Z" fill="#3CE0A0"/>
</svg>
