<svg width="37" height="32" viewBox="0 0 37 32" fill="none" xmlns="http://www.w3.org/2000/svg">
<path d="M17.8837 9H3.80012C2.21733 9 0.793137 9.95346 0.242037 11.3477C0.222606 11.3703 0.204015 11.394 0.186344 11.4187C0.0147673 11.659 -0.0353659 11.9492 0.0237627 12.2164C0.0081561 12.3502 0.000122068 12.4865 0.000122068 12.625V28.375C0.000122068 30.4308 1.76961 32 3.80012 32H26.2001C28.2306 32 30.0001 30.4308 30.0001 28.375V18.9394C29.6185 18.9795 29.2311 19 28.8389 19C28.5567 19 28.277 18.9894 28.0001 18.9685V28.375C28.0001 29.2067 27.2496 30 26.2001 30H3.80012C2.75063 30 2.00012 29.2067 2.00012 28.375V13.9432L14.4188 22.8137C14.7665 23.0621 15.2336 23.0621 15.5813 22.8137L23.1431 17.4124C22.5417 17.0477 21.978 16.6269 21.4592 16.1574L15.0001 20.7711L2.31744 11.7121C2.63283 11.2942 3.16104 11 3.80012 11H18.2529C18.0706 10.3554 17.9456 9.68682 17.8837 9Z" fill="#363636"/>
<path d="M37 8C37 12.4183 33.4183 16 29 16C24.5817 16 21 12.4183 21 8C21 3.58172 24.5817 0 29 0C33.4183 0 37 3.58172 37 8Z" fill="#3CE0A0"/>
</svg>
