<svg width="21" height="13" viewBox="0 0 21 13" fill="none" xmlns="http://www.w3.org/2000/svg">
<path d="M20.1 6.4283C20.1 6.3283 20.1 6.3283 20.1 6.3283C20.1 6.3283 20.1 6.3283 20.1 6.2283H20V6.0283H19.9C17.8 2.5283 14.4 0.228298 10.6 0.0282983C6.6 -0.271702 2.6 1.8283 0.3 5.6283L0.4 5.7283C0.2 5.7283 0.1 5.8283 0 6.0283C0 6.0283 0 6.0283 0 6.1283H0.1L0 6.9283C2.1 10.4283 5.5 12.7283 9.3 12.9283C9.5 12.9283 9.7 12.9283 9.9 12.9283C13.8 12.9283 17.4 10.8283 19.6 7.2283C19.8 7.3283 19.9 7.1283 20 7.0283L20.1 6.4283ZM9.4 11.3283C6.4 11.0283 3.6 9.3283 1.8 6.5283C3.8 3.4283 7.1 1.6283 10.5 1.8283C13.5 2.0283 16.3 3.7283 18.1 6.5283C16.2 9.6283 12.8 11.4283 9.4 11.3283Z" fill="#3CE0A0"/>
<path d="M13 6.5283C13 4.6283 11.6 3.0283 9.9 3.0283C8.2 3.0283 6.8 4.6283 6.8 6.5283C6.8 8.4283 8.2 10.0283 9.9 10.0283C11.6 10.0283 13 8.4283 13 6.5283Z" fill="#3CE0A0"/>
</svg>
