<svg width="34" height="38" viewBox="0 0 34 38" fill="none" xmlns="http://www.w3.org/2000/svg">
<path d="M32 0H2C0.9 0 0 0.9 0 2V35.8C0 36.9 0.9 37.8 2 37.8H32C33.1 37.8 34 36.9 34 35.8V2C34 0.9 33.1 0 32 0ZM31.8 35.6H2.2V2.2H31.8V35.6Z" fill="#3CE0A0"/>
<path d="M10.4 31.2H14.9C15.5 31.2 16 30.7 16 30.1C16 29.5 15.5 29 14.9 29H13.7V20.4L26.6 14.9C27 14.7 27.3 14.3 27.3 13.9C27.3 13.5 27.1 13.1 26.6 12.9L13.7 7.5V7.1C13.7 6.5 13.2 6 12.6 6C12 6 11.5 6.5 11.5 7.1V29H10.3C9.7 29 9.2 29.5 9.2 30.1C9.3 30.7 9.8 31.2 10.4 31.2ZM13.7 18.2V9.9L23.5 14L13.7 18.2Z" fill="#3CE0A0"/>
</svg>
