<svg width="32" height="32" viewBox="0 0 32 32" fill="none" xmlns="http://www.w3.org/2000/svg">
<path d="M23.6657 29.3962C16.1423 33.7556 6.47431 31.154 2.11494 23.6306C-2.24444 16.1071 0.35713 6.43916 7.88057 2.11494C15.404 -2.24443 25.072 0.357126 29.4313 7.88056C33.7907 15.404 31.1892 25.0368 23.6657 29.3962Z" fill="#EF525A"/>
<path d="M13.2243 17.2319C10.0251 11.6772 10.5876 4.9624 14.1032 0.0756835C11.9587 0.286621 9.84932 0.954785 7.88057 2.11494C0.357131 6.47432 -2.24443 16.1071 2.11494 23.6306C6.47431 31.154 16.1071 33.7556 23.6657 29.3962C25.6345 28.236 27.2868 26.7593 28.5524 25.0015C22.5407 25.6343 16.4587 22.7866 13.2243 17.2319Z" fill="#EF525A"/>
<path d="M22.0488 12.7671H18.7441V9.4624C18.7441 7.81006 17.4082 6.50928 15.791 6.50928C14.1387 6.50928 12.8379 7.84521 12.8379 9.4624V12.7671H9.5332C7.88086 12.7671 6.58008 14.103 6.58008 15.7202C6.58008 17.3726 7.91601 18.6733 9.5332 18.6733H12.8379V21.978C12.8379 23.6304 14.1738 24.9312 15.791 24.9312C17.4082 24.9312 18.7441 23.5952 18.7441 21.978V18.6733H22.0488C23.7012 18.6733 25.0019 17.3374 25.0019 15.7202C25.0371 14.103 23.7012 12.7671 22.0488 12.7671Z" fill="white"/>
</svg>
