<svg width="20" height="22" viewBox="0 0 20 22" fill="none" xmlns="http://www.w3.org/2000/svg">
<path d="M10.0001 0C10.623 0 11.2373 0.083019 11.8282 0.242928C11.4595 0.799719 11.1993 1.43462 11.0777 2.11749C10.7265 2.03997 10.3654 2 10.0001 2C8.674 2 7.40223 2.52678 6.46454 3.46447C5.52686 4.40215 5.00008 5.67392 5.00008 7C5.00008 10.6473 4.21715 13.0654 3.37797 14.6039C3.30188 14.7434 3.22549 14.8753 3.1494 15H16.8508C16.7747 14.8753 16.6983 14.7434 16.6222 14.6039C15.8543 13.1961 15.1335 11.0519 15.0166 7.90331C15.3346 7.96673 15.6634 8 16.0001 8C16.3488 8 16.6892 7.9643 17.0178 7.89635C17.132 10.7296 17.7782 12.5465 18.378 13.6461C18.7098 14.2544 19.0329 14.6535 19.2573 14.8904C19.3698 15.0091 19.4581 15.0878 19.5114 15.1322C19.538 15.1544 19.5558 15.168 19.5635 15.1737L19.5664 15.1758C19.9249 15.4221 20.0835 15.8725 19.9572 16.2898C19.8295 16.7115 19.4407 17 19.0001 17H1.00008C0.559411 17 0.170684 16.7115 0.0429858 16.2898C-0.0833568 15.8725 0.0752824 15.4221 0.433767 15.1758L0.436625 15.1737C0.444325 15.168 0.462178 15.1544 0.4888 15.1322C0.542016 15.0878 0.6304 15.0091 0.742875 14.8904C0.967304 14.6535 1.29039 14.2544 1.62218 13.6461C2.28301 12.4346 3.00008 10.3527 3.00008 7C3.00008 5.14348 3.73758 3.36301 5.05033 2.05025C6.36309 0.737498 8.14356 0 10.0001 0Z" fill="#363636"/>
<path d="M9.13508 19.4982C8.85796 19.0205 8.24603 18.8579 7.76831 19.135C7.29058 19.4121 7.12796 20.024 7.40508 20.5018C7.66879 20.9564 8.04731 21.3337 8.50274 21.596C8.95816 21.8584 9.47451 21.9964 10.0001 21.9964C10.5256 21.9964 11.042 21.8584 11.4974 21.596C11.9528 21.3337 12.3314 20.9564 12.5951 20.5018C12.8722 20.024 12.7096 19.4121 12.2318 19.135C11.7541 18.8579 11.1422 19.0205 10.8651 19.4982C10.7772 19.6497 10.651 19.7755 10.4992 19.863C10.3474 19.9504 10.1753 19.9964 10.0001 19.9964C9.82489 19.9964 9.65277 19.9504 9.50096 19.863C9.34916 19.7755 9.22298 19.6497 9.13508 19.4982Z" fill="#363636"/>
<path d="M19 3C19 4.65685 17.6569 6 16 6C14.3431 6 13 4.65685 13 3C13 1.34315 14.3431 0 16 0C17.6569 0 19 1.34315 19 3Z" fill="#3CE0A0"/>
</svg>
