<svg width="21" height="22" viewBox="0 0 21 22" fill="none" xmlns="http://www.w3.org/2000/svg">
<path d="M17.6293 21.2306H2.81503C1.26205 21.2306 0 19.9686 0 18.4156V4.38765C0 2.83467 1.26205 1.57261 2.81503 1.57261H3.93159V0.786305C3.93159 0.353824 4.28548 0 4.71796 0C5.15044 0 5.50427 0.353824 5.50427 0.786305V1.57261H14.9401V0.786305C14.9401 0.353824 15.294 0 15.7264 0C16.1589 0 16.5127 0.353824 16.5127 0.786305V1.57261H17.6293C19.1823 1.57261 20.4443 2.83467 20.4443 4.38765V18.4156C20.4443 19.9686 19.1823 21.2306 17.6293 21.2306ZM18.8717 4.38765C18.8717 3.70357 18.3134 3.14529 17.6293 3.14529H16.5127V3.93159C16.5127 4.36407 16.1589 4.7179 15.7264 4.7179C15.294 4.7179 14.9401 4.36407 14.9401 3.93159V3.14529H5.50427V3.93159C5.50427 4.36407 5.15044 4.7179 4.71796 4.7179C4.28548 4.7179 3.93166 4.36407 3.93166 3.93159V3.14529H2.8151C2.13102 3.14529 1.57274 3.70357 1.57274 4.38765V18.4156C1.57274 19.0997 2.13102 19.658 2.8151 19.658H17.6293C18.3134 19.658 18.8717 19.0997 18.8717 18.4156V4.38765Z" fill="#363636"/>
<path d="M14.744 9.04264C14.2012 9.04264 13.7611 8.60259 13.7611 8.05976C13.7611 7.51693 14.2012 7.07688 14.744 7.07688C15.2868 7.07688 15.7269 7.51693 15.7269 8.05976C15.7269 8.60259 15.2868 9.04264 14.744 9.04264Z" fill="#363636"/>
<path d="M10.4191 9.04264C9.87625 9.04264 9.4362 8.60259 9.4362 8.05976C9.4362 7.51693 9.87625 7.07688 10.4191 7.07688C10.9619 7.07688 11.402 7.51693 11.402 8.05976C11.402 8.60259 10.9619 9.04264 10.4191 9.04264Z" fill="#363636"/>
<path d="M6.09417 9.04264C5.55134 9.04264 5.11129 8.60259 5.11129 8.05976C5.11129 7.51693 5.55134 7.07688 6.09417 7.07688C6.637 7.07688 7.07705 7.51693 7.07705 8.05976C7.07705 8.60259 6.637 9.04264 6.09417 9.04264Z" fill="#363636"/>
<path d="M14.744 12.9743C14.2012 12.9743 13.7611 12.5342 13.7611 11.9914C13.7611 11.4485 14.2012 11.0085 14.744 11.0085C15.2868 11.0085 15.7269 11.4485 15.7269 11.9914C15.7269 12.5342 15.2868 12.9743 14.744 12.9743Z" fill="#363636"/>
<path d="M10.4191 12.9743C9.87625 12.9743 9.4362 12.5342 9.4362 11.9914C9.4362 11.4485 9.87625 11.0085 10.4191 11.0085C10.9619 11.0085 11.402 11.4485 11.402 11.9914C11.402 12.5342 10.9619 12.9743 10.4191 12.9743Z" fill="#363636"/>
<path d="M6.09417 12.9743C5.55134 12.9743 5.11129 12.5342 5.11129 11.9914C5.11129 11.4485 5.55134 11.0085 6.09417 11.0085C6.637 11.0085 7.07705 11.4485 7.07705 11.9914C7.07705 12.5342 6.637 12.9743 6.09417 12.9743Z" fill="#363636"/>
<path d="M14.744 16.9058C14.2012 16.9058 13.7611 16.4658 13.7611 15.9229C13.7611 15.3801 14.2012 14.9401 14.744 14.9401C15.2868 14.9401 15.7269 15.3801 15.7269 15.9229C15.7269 16.4658 15.2868 16.9058 14.744 16.9058Z" fill="#363636"/>
<path d="M10.4191 16.9058C9.87625 16.9058 9.4362 16.4658 9.4362 15.9229C9.4362 15.3801 9.87625 14.9401 10.4191 14.9401C10.9619 14.9401 11.402 15.3801 11.402 15.9229C11.402 16.4658 10.9619 16.9058 10.4191 16.9058Z" fill="#363636"/>
<path d="M6.09417 16.9058C5.55134 16.9058 5.11129 16.4658 5.11129 15.9229C5.11129 15.3801 5.55134 14.9401 6.09417 14.9401C6.637 14.9401 7.07705 15.3801 7.07705 15.9229C7.07705 16.4658 6.637 16.9058 6.09417 16.9058Z" fill="#363636"/>
</svg>
