<svg width="36" height="36" viewBox="0 0 36 36" fill="none" xmlns="http://www.w3.org/2000/svg">
<path d="M8.08594 13.0922C8.08594 12.4734 8.59219 11.9672 9.21094 11.9672H11.243C12.593 11.9672 13.8023 12.5156 14.8289 13.6055C15.2578 14.0555 15.2367 14.7656 14.7867 15.1945C14.5688 15.3984 14.2875 15.5039 14.0133 15.5039C13.718 15.5039 13.4156 15.3844 13.1977 15.1523C12.6 14.5266 11.9602 14.2172 11.243 14.2172H9.21094C8.59219 14.2172 8.08594 13.718 8.08594 13.0922ZM25.0523 9.76641C24.6164 9.33047 23.8992 9.33047 23.4633 9.76641C23.0273 10.2023 23.0273 10.9195 23.4633 11.3555L24.075 11.9672H21.6984C20.468 11.9672 18.6891 12.4523 17.1984 14.7867L13.8516 19.9969C13.0852 21.1922 12.2344 21.7758 11.243 21.7758H9.21094C8.59219 21.7758 8.08594 22.282 8.08594 22.9008C8.08594 23.5195 8.59219 24.0258 9.21094 24.0258H11.243C12.4734 24.0258 14.2523 23.5336 15.743 21.2063L19.0828 15.9961C19.8492 14.8008 20.7 14.2172 21.6914 14.2172H24.068L23.4563 14.8289C23.0203 15.2648 23.0203 15.982 23.4563 16.418C23.6742 16.6359 23.9625 16.7484 24.2508 16.7484C24.5391 16.7484 24.8273 16.6359 25.0453 16.418L27.5766 13.8867C28.0125 13.4508 28.0125 12.7336 27.5766 12.2977L25.0523 9.76641ZM25.0523 19.582C24.6164 19.1461 23.8992 19.1461 23.4633 19.582C23.0273 20.018 23.0273 20.7352 23.4633 21.1711L24.075 21.7828H21.6984C20.9813 21.7828 20.3414 21.4805 19.7437 20.8477C19.3148 20.3977 18.6047 20.3766 18.1547 20.8055C17.7047 21.2344 17.6836 21.9445 18.1125 22.3945C19.1391 23.4773 20.3484 24.0328 21.6984 24.0328H24.075L23.4633 24.6445C23.0273 25.0805 23.0273 25.7977 23.4633 26.2336C23.6812 26.4516 23.9695 26.5641 24.2578 26.5641C24.5461 26.5641 24.8344 26.4516 25.0523 26.2336L27.5836 23.7023C28.0195 23.2664 28.0195 22.5492 27.5836 22.1133L25.0523 19.582ZM36 18C36 27.9281 27.9281 36 18 36C8.07188 36 0 27.9281 0 18C0 8.07188 8.07188 0 18 0C27.9281 0 36 8.07188 36 18ZM33.75 18C33.75 9.31641 26.6836 2.25 18 2.25C9.31641 2.25 2.25 9.31641 2.25 18C2.25 26.6836 9.31641 33.75 18 33.75C26.6836 33.75 33.75 26.6836 33.75 18Z" fill="#3CE0A0"/>
</svg>
