<svg width="37" height="37" viewBox="0 0 37 37" fill="none" xmlns="http://www.w3.org/2000/svg">
<path fill-rule="evenodd" clip-rule="evenodd" d="M18.5 37C28.7173 37 37 28.7173 37 18.5C37 8.28273 28.7173 0 18.5 0C8.28273 0 0 8.28273 0 18.5C0 28.7173 8.28273 37 18.5 37ZM25.4337 12C25.0233 12.001 24.6298 12.1472 24.3384 12.407H24.3405C24.3256 12.42 24.3117 12.4337 24.2988 12.4482L17.0658 20.7349L12.7047 16.8154C12.5617 16.6774 12.3893 16.5667 12.1977 16.4899C12.0061 16.4132 11.7993 16.3719 11.5895 16.3686C11.3798 16.3652 11.1715 16.3999 10.977 16.4706C10.7825 16.5412 10.6058 16.6464 10.4575 16.7797C10.3092 16.9131 10.1922 17.072 10.1137 17.2468C10.0351 17.4217 9.99654 17.6091 10.0002 17.7976C10.0039 17.9862 10.0498 18.1722 10.1352 18.3445C10.2206 18.5168 10.3437 18.6719 10.4971 18.8004L16.0057 23.7556C16.1542 23.8891 16.3311 23.9944 16.5259 24.065C16.7206 24.1357 16.9292 24.1703 17.1392 24.1668C17.3492 24.1633 17.5562 24.1218 17.7479 24.0447C17.9396 23.9676 18.1121 23.8565 18.255 23.7182L26.5689 14.3734C26.852 14.1062 27.0068 13.7496 26.9998 13.3806C26.9928 13.0116 26.8246 12.6599 26.5315 12.4016C26.2385 12.1432 25.8441 11.999 25.4337 12Z" fill="#3CE0A0"/>
</svg>
