<svg width="39" height="30" viewBox="0 0 39 30" fill="none" xmlns="http://www.w3.org/2000/svg">
<path fill-rule="evenodd" clip-rule="evenodd" d="M2 12.375C2 11.775 2.4 11.375 3 11.375H12C12.6 11.375 13 11.775 13 12.375C13 12.975 12.6 13.375 12 13.375H3C2.4 13.375 2 12.975 2 12.375ZM0 15.375C0 14.775 0.4 14.375 1 14.375H10C10.6 14.375 11 14.775 11 15.375C11 15.975 10.6 16.375 10 16.375H1C0.4 16.375 0 15.975 0 15.375ZM3 17.375C2.4 17.375 2 17.775 2 18.375C2 18.975 2.4 19.375 3 19.375H12C12.6 19.375 13 18.975 13 18.375C13 17.775 12.6 17.375 12 17.375H3Z" fill="#3CE0A0"/>
<path d="M38.3996 6.275L37.9996 5.875L23.3996 0.075C23.1996 -0.025 22.8996 -0.025 22.6996 0.075L8.39961 5.675H8.29961L7.89961 5.875V5.975L7.69961 6.175V6.275C7.69961 6.375 7.59961 6.475 7.59961 6.575V20.175V22.875C7.59961 23.275 7.89961 23.675 8.29961 23.875L22.5996 29.675C22.7996 29.775 22.8996 29.775 22.9996 29.775C23.0996 29.775 23.2996 29.775 23.3996 29.675L37.6996 23.875C38.0996 23.675 38.3996 23.375 38.3996 22.875V6.675V6.275ZM34.5996 6.675L22.9996 11.375L18.7996 9.675L30.1996 4.975L34.5996 6.675ZM11.4996 6.675L22.9996 2.175L27.3996 3.875L16.0996 8.475L11.4996 6.675ZM21.8996 13.275V27.175L9.69961 22.175V8.175L21.8996 13.275ZM36.3996 22.275L24.0996 27.275V13.275L36.3996 8.275V22.275Z" fill="#363636"/>
</svg>
