<svg width="25" height="33" viewBox="0 0 25 33" fill="none" xmlns="http://www.w3.org/2000/svg">
<path d="M23.8184 8.25H19.6934V7.21875C19.6934 3.23832 16.455 0 12.4746 0C8.49418 0 5.25586 3.23832 5.25586 7.21875V8.25H1.13086C0.561287 8.25 0.0996094 8.71174 0.0996094 9.28125V29.9062C0.0996094 31.6121 1.48748 33 3.19336 33H21.7559C23.4617 33 24.8496 31.6121 24.8496 29.9062V9.28125C24.8496 8.71174 24.3879 8.25 23.8184 8.25ZM7.31836 7.21875C7.31836 4.37559 9.63145 2.0625 12.4746 2.0625C15.3178 2.0625 17.6309 4.37559 17.6309 7.21875V8.25H7.31836V7.21875ZM22.7871 29.9062C22.7871 30.4749 22.3245 30.9375 21.7559 30.9375H3.19336C2.62475 30.9375 2.16211 30.4749 2.16211 29.9062V10.3125H5.25586V12.375C5.25586 12.9445 5.71754 13.4062 6.28711 13.4062C6.85668 13.4062 7.31836 12.9445 7.31836 12.375V10.3125H17.6309V12.375C17.6309 12.9445 18.0925 13.4062 18.6621 13.4062C19.2317 13.4062 19.6934 12.9445 19.6934 12.375V10.3125H22.7871V29.9062Z" fill="#363636"/>
<path d="M13.2753 17.1875H12.1426C11.658 17.1875 11.2692 17.582 11.2692 18.061V19.3289C11.2692 19.3458 11.2579 19.3571 11.241 19.3571H9.97307C9.48844 19.3571 9.09961 19.7515 9.09961 20.2305V21.3632C9.09961 21.8478 9.49408 22.2367 9.97307 22.2367H11.241C11.2579 22.2367 11.2692 22.248 11.2692 22.2649V23.5328C11.2692 24.0174 11.6636 24.4062 12.1426 24.4062H13.2753C13.7543 24.4062 14.1488 24.0118 14.1488 23.5328V22.2649C14.1488 22.248 14.1601 22.2367 14.177 22.2367H15.4449C15.9239 22.2367 16.3184 21.8422 16.3184 21.3632V20.2305C16.3184 19.7515 15.9239 19.3571 15.4449 19.3571H14.177C14.1601 19.3571 14.1488 19.3458 14.1488 19.3289V18.061C14.1488 17.582 13.76 17.1875 13.2753 17.1875ZM14.177 20.2024H15.4449C15.4618 20.2024 15.4731 20.2136 15.4731 20.2305V21.3632C15.4731 21.3801 15.4618 21.3914 15.4449 21.3914H14.177C13.698 21.3914 13.3035 21.7859 13.3035 22.2649V23.5328C13.3035 23.5497 13.2922 23.561 13.2753 23.561H12.1426C12.1257 23.561 12.1145 23.5497 12.1145 23.5328V22.2649C12.1145 21.7802 11.72 21.3914 11.241 21.3914H9.97307C9.95617 21.3914 9.9449 21.3801 9.9449 21.3632V20.2305C9.9449 20.2136 9.95617 20.2024 9.97307 20.2024H11.241C11.7256 20.2024 12.1145 19.8079 12.1145 19.3289V18.061C12.1145 18.0441 12.1257 18.0328 12.1426 18.0328H13.2753C13.2922 18.0328 13.3035 18.0441 13.3035 18.061V19.3289C13.3035 19.8135 13.698 20.2024 14.177 20.2024Z" fill="#3CE0A0" stroke="#3CE0A0" stroke-width="0.5"/>
</svg>
