<svg width="34" height="34" viewBox="0 0 34 34" fill="none" xmlns="http://www.w3.org/2000/svg">
<path fill-rule="evenodd" clip-rule="evenodd" d="M15.2517 30.631C15.7156 31.4113 16.8883 31.296 17.1897 30.4402L23.9429 11.2494C24.24 10.405 23.421 9.59412 22.5741 9.88815L3.278 16.6045C2.41819 16.9042 2.30149 18.0704 3.08614 18.5317L6.61346 20.607L0.51528 26.6727C0.0964691 27.0892 0.0964691 27.7655 0.51528 28.1827L5.54817 33.1876C5.96698 33.6041 6.6471 33.6041 7.06663 33.1876L13.1641 27.1226L15.2517 30.631ZM7.0238 17.9478L10.6733 20.095L3.30137 27.4276L6.30728 30.4168L13.6735 23.0898L15.843 26.7358L20.5981 13.223L7.0238 17.9478Z" fill="#363636"/>
<path d="M17.163 5.49466C17.5812 5.91164 18.2611 5.91377 18.6817 5.49673C19.1017 5.08025 19.1025 4.40413 18.6838 3.98652L15.6867 0.997995C15.2679 0.580379 14.588 0.579525 14.1681 0.995931C13.7481 1.41241 13.7473 2.08852 14.166 2.50614L17.163 5.49466Z" fill="#3CE0A0"/>
<path d="M29.881 5.30465L32.8859 2.32395C33.3058 1.9074 33.3067 1.23128 32.8878 0.813739C32.4689 0.396121 31.7889 0.395339 31.3691 0.811888L28.3642 3.79252C27.9443 4.20907 27.9435 4.88519 28.3623 5.30273C28.7817 5.72078 29.4616 5.72063 29.881 5.30465Z" fill="#3CE0A0"/>
<path d="M31.3441 19.6352C31.7627 20.0525 32.4425 20.054 32.8628 19.6372C33.2827 19.2208 33.2836 18.5446 32.8649 18.127L29.8678 15.1386C29.4489 14.7209 28.769 14.7201 28.3491 15.1365C27.9291 15.553 27.9283 16.2292 28.347 16.6467L31.3441 19.6352Z" fill="#3CE0A0"/>
<path fill-rule="evenodd" clip-rule="evenodd" d="M31.0169 0.456957C31.632 -0.153348 32.6271 -0.152185 33.2408 0.459651C33.856 1.07295 33.8547 2.06716 33.2381 2.67891L30.2331 5.65963C29.6188 6.26902 28.6238 6.26935 28.0093 5.65685C27.3941 5.04355 27.3954 4.04932 28.0121 3.43756L31.0169 0.456957ZM32.5348 1.16783C32.3107 0.944428 31.9458 0.944025 31.7213 1.16682L28.7163 4.14748C28.7163 4.14749 28.7163 4.14747 28.7163 4.14748C28.4933 4.36881 28.4928 4.72683 28.7153 4.94861C28.9396 5.1722 29.3045 5.17224 29.5289 4.94967C29.5289 4.94967 29.5289 4.94968 29.5289 4.94967L32.5338 1.96899C32.7569 1.74766 32.7573 1.38962 32.5348 1.16783ZM13.816 0.64091C14.4312 0.0308492 15.4262 0.0320832 16.0398 0.643937L19.0368 3.63246C19.6518 4.24579 19.6506 5.24002 19.0338 5.85175C18.4175 6.46278 17.4226 6.45956 16.81 5.84872L13.8129 2.8602C13.198 2.24686 13.1992 1.25264 13.816 0.64091ZM15.3337 1.35205C15.1097 1.12868 14.7448 1.1282 14.5202 1.35095C14.2971 1.57217 14.2966 1.93018 14.519 2.15208C14.5191 2.15209 14.519 2.15207 14.519 2.15208L17.5161 5.14061C17.7398 5.36371 18.1047 5.36474 18.3297 5.14168C18.5527 4.92046 18.5532 4.56247 18.3307 4.34057M18.3307 4.34057L15.3337 1.35205C15.3337 1.35205 15.3337 1.35205 15.3337 1.35205M27.997 14.7815C28.6122 14.1715 29.6071 14.1725 30.2208 14.7845L33.2179 17.773C33.833 18.3863 33.8317 19.3806 33.2149 19.9923C32.5991 20.6029 31.6043 20.6006 30.9911 19.9893L27.994 17.0008C27.3789 16.3875 27.3802 15.3932 27.997 14.7815ZM28.7011 15.4916C28.4781 15.7128 28.4776 16.0709 28.7001 16.2927C28.7001 16.2927 28.7001 16.2927 28.7001 16.2927M31.6972 19.2811C31.6972 19.2811 31.6972 19.2811 31.6972 19.2811L28.7001 16.2927L31.6972 19.2811ZM31.6972 19.2811C31.9212 19.5044 32.286 19.5051 32.5107 19.2822C32.7338 19.061 32.7343 18.7029 32.5118 18.4811L29.5147 15.4926C29.2907 15.2692 28.9259 15.2688 28.7011 15.4916" fill="#3CE0A0"/>
</svg>
